<svg width="138" height="28" viewBox="0 0 138 28" fill="none" xmlns="http://www.w3.org/2000/svg">
<path d="M7.42877 16.6644C6.46358 16.6644 5.70029 16.3897 5.15916 15.8486C4.90698 15.5956 4.7201 15.3164 4.60376 15.0177L4.54147 14.8564H0L0.0923154 15.1783C0.359505 16.1135 0.794063 16.9841 1.38548 17.7647C2.69066 19.4924 4.72385 20.369 7.42877 20.369C9.44319 20.369 11.0681 19.8924 12.2584 18.9513C13.4668 17.9966 14.0792 16.8445 14.0792 15.5266C14.0792 13.1774 12.5436 11.6441 9.50849 10.9671C9.32461 10.9303 9.08444 10.8801 8.78948 10.8148C8.49077 10.7495 8.24835 10.6984 8.06221 10.6609C7.87758 10.6241 7.65618 10.5783 7.39799 10.5228C7.14957 10.4695 6.94917 10.4162 6.80282 10.3644C6.64296 10.3081 6.45983 10.2474 6.25268 10.1813C6.06805 10.1228 5.92545 10.065 5.83013 10.0087C5.72881 9.94939 5.62449 9.88034 5.52091 9.80229C5.44436 9.7445 5.39107 9.68445 5.36255 9.62141C5.33103 9.55236 5.31602 9.48256 5.31602 9.40676C5.31602 9.17559 5.43085 8.99021 5.67777 8.82284C5.94947 8.63971 6.39753 8.54665 7.01072 8.54665C7.89259 8.54665 8.6071 8.76205 9.12197 9.17634C9.29984 9.33846 9.4492 9.54561 9.56403 9.79178L9.63233 9.93738H14.0012L13.9344 9.63117C13.7407 8.74329 13.3595 7.94022 12.7988 7.24523C11.5117 5.6511 9.56403 4.84277 7.01072 4.84277C5.10662 4.84277 3.58004 5.28709 2.473 6.16296C1.34796 7.05309 0.777551 8.14511 0.777551 9.40676C0.777551 11.7762 2.32365 13.3095 5.37531 13.9662C5.55919 14.003 5.8594 14.0676 6.27445 14.1599C6.6955 14.2537 7.00396 14.319 7.19985 14.3558C7.39349 14.3925 7.65017 14.4526 7.96314 14.5336C8.27086 14.6124 8.50578 14.6875 8.66039 14.7558C8.81725 14.8256 8.98912 14.9112 9.16925 15.0102C9.31335 15.0898 9.41617 15.1746 9.46496 15.2549C9.51524 15.3367 9.53926 15.4253 9.53926 15.5266C9.53926 15.808 9.53926 16.6652 7.42726 16.6652L7.42877 16.6644Z" fill="white"/>
<path d="M19.4016 15.7462V10.7027L15.9341 9.10554H23.4072V5.26207H19.4016V2.20215H15.002V13.9878C15.002 17.2781 17.6784 19.9545 20.9687 19.9545H23.5738V16.111H19.7663C19.5652 16.111 19.4008 15.9474 19.4008 15.7455L19.4016 15.7462Z" fill="white"/>
<path d="M81.0559 16.0939V11.0503L77.5884 9.4532H85.0615V5.60972H81.0559V2.5498H76.6562V14.3354C76.6562 17.6257 79.3326 20.3021 82.623 20.3021H85.2281V16.4587H81.4206C81.2195 16.4587 81.0551 16.295 81.0551 16.0932L81.0559 16.0939Z" fill="white"/>
<path d="M57.1516 15.7462V10.7027L53.6841 9.10554H61.1572V5.26207H57.1516V2.20215H52.752V13.9878C52.752 17.2781 55.4283 19.9545 58.7187 19.9545H61.3238V16.111H57.5163C57.3152 16.111 57.1508 15.9474 57.1508 15.7455L57.1516 15.7462Z" fill="white"/>
<path d="M35.0307 6.78815C34.7898 6.52021 34.5166 6.25828 34.2096 6.00535C33.1679 5.2338 31.985 4.84277 30.6934 4.84277C28.7735 4.84277 27.1426 5.56779 25.8464 6.9983C24.557 8.42131 23.9033 10.3081 23.9033 12.6063C23.9033 14.9044 24.557 16.7912 25.8464 18.2142C27.1426 19.644 28.7728 20.3698 30.6934 20.3698C31.985 20.3698 33.1679 19.9788 34.2201 19.1989C34.5196 18.952 34.7905 18.6923 35.0307 18.4244V19.9525H39.4303V5.26007H35.0307V6.78815ZM34.0955 9.70247C34.7162 10.384 35.0315 11.3611 35.0315 12.6063C35.0315 13.8514 34.717 14.8294 34.0955 15.5101C33.4726 16.1938 32.6778 16.5263 31.6676 16.5263C30.7151 16.5263 29.9579 16.1908 29.3537 15.4996C28.7495 14.8091 28.4425 13.8356 28.4425 12.6055C28.4425 11.3754 28.7488 10.4027 29.3537 9.71222C29.9586 9.02174 30.7151 8.6855 31.6676 8.6855C32.6778 8.6855 33.4719 9.01873 34.0955 9.70247Z" fill="white"/>
<path d="M45.6894 11.9776C45.6894 11.0387 45.9506 10.3294 46.4887 9.80857C47.0216 9.29295 47.7909 9.03102 48.7749 9.03102H51.1135V4.9834H49.1922C47.9763 4.9834 46.9503 5.41195 46.148 6.2533C45.9746 6.42667 45.8215 6.61581 45.6887 6.81845V5.2611H41.2891V19.9535H45.6887L45.6894 11.9776Z" fill="white"/>
<path d="M71.4965 10.9015C71.3126 10.8647 71.0725 10.8145 70.7783 10.7492C70.4795 10.6839 70.2371 10.6328 70.0502 10.5953C69.8656 10.5585 69.6442 10.5127 69.386 10.4572C69.1368 10.4039 68.9372 10.3506 68.7908 10.2988C68.631 10.2425 68.4478 10.1818 68.2407 10.1157C68.0553 10.0572 67.9135 9.99938 67.8182 9.94309C67.7168 9.88379 67.6125 9.81474 67.5089 9.73669C67.4324 9.6789 67.3791 9.61886 67.3506 9.55581C67.319 9.48676 67.304 9.41696 67.304 9.34041C67.304 9.10924 67.4189 8.92386 67.6658 8.75649C67.9375 8.57261 68.3856 8.4803 68.9987 8.4803C69.8806 8.4803 70.5951 8.6957 71.11 9.10999C71.2879 9.27211 71.4372 9.47926 71.552 9.72543L71.6204 9.87103H75.9892L75.9224 9.56482C75.7288 8.67694 75.3467 7.87462 74.7868 7.17888C73.4997 5.58475 71.552 4.77642 68.9987 4.77642C67.0946 4.77642 65.5681 5.22074 64.461 6.09661C63.336 6.98674 62.7656 8.07876 62.7656 9.34041C62.7656 11.7098 64.3117 13.2432 67.3633 13.8999C67.5472 13.9367 67.8474 14.0012 68.2625 14.0935C68.6828 14.1873 68.992 14.2526 69.1879 14.2894C69.3815 14.3262 69.6382 14.3862 69.9512 14.4673C70.2589 14.5461 70.4938 14.6212 70.6484 14.6894C70.8068 14.76 70.9779 14.8456 71.158 14.9446C71.3021 15.0242 71.4042 15.1082 71.4537 15.1893C71.504 15.2711 71.528 15.3597 71.528 15.461C71.528 15.7424 71.528 16.5996 69.416 16.5996C68.4509 16.5996 67.6876 16.3249 67.1464 15.783C66.8942 15.5308 66.7074 15.2508 66.591 14.9521L66.5287 14.7908H61.9873L62.0796 15.1127C62.3468 16.0479 62.7813 16.9178 63.3728 17.6991C64.6779 19.4268 66.7111 20.3034 69.416 20.3034C71.4305 20.3034 73.0561 19.8268 74.2457 18.8857C75.4541 17.931 76.0665 16.7782 76.0665 15.461C76.0665 13.1118 74.5317 11.5785 71.4965 10.9015Z" fill="white"/>
<path d="M97.0192 12.9578C97.0192 13.9816 96.7137 14.8319 96.1125 15.4849C95.5076 16.1416 94.7946 16.4606 93.9337 16.4606C93.0729 16.4606 92.4267 16.2181 91.9621 15.7205C91.4998 15.2252 91.2649 14.4829 91.2649 13.514V5.19434H86.8652V14.0701C86.8652 16.0755 87.3801 17.6322 88.3956 18.6957C89.414 19.7629 90.8566 20.304 92.6819 20.304C94.0133 20.304 95.2164 19.8928 96.2611 19.0799C96.5591 18.8413 96.8128 18.5883 97.0192 18.3241V19.886H101.419V5.19434H97.0192V12.9578Z" fill="white"/>
<path d="M114.406 6.72032C114.166 6.45163 113.892 6.19045 113.585 5.93677C112.543 5.16522 111.36 4.7742 110.068 4.7742C108.149 4.7742 106.518 5.49921 105.221 6.92972C103.932 8.35273 103.278 10.2396 103.278 12.5377C103.278 14.8358 103.932 16.7234 105.221 18.1457C106.518 19.5762 108.149 20.3012 110.068 20.3012C111.36 20.3012 112.543 19.9102 113.595 19.1304C113.895 18.8827 114.166 18.6238 114.406 18.3558V19.8839H118.805V0.827148H114.406V6.72032ZM113.47 9.63464C114.09 10.3161 114.406 11.2933 114.406 12.5384C114.406 13.7836 114.091 14.7615 113.47 15.4423C112.847 16.126 112.052 16.4585 111.041 16.4585C110.089 16.4585 109.332 16.123 108.728 15.4317C108.123 14.7413 107.817 13.7678 107.817 12.5377C107.817 11.3076 108.123 10.3349 108.728 9.6444C109.332 8.95391 110.089 8.61767 111.041 8.61767C112.051 8.61767 112.846 8.95091 113.47 9.63464Z" fill="white"/>
<path d="M130.982 5.19509L128.019 15.6995C127.951 15.9412 127.698 16.0966 127.441 16.0283C127.266 15.9817 127.14 15.8264 127.095 15.6507L124.414 5.19509H119.856L122.913 16.7413C123.375 18.4855 124.296 21.0471 130.506 19.874L126.148 21.6715L125.135 25.172H129.694L135.544 5.19434L130.982 5.19509Z" fill="white"/>
<path d="M135.545 20.3017C136.606 20.3017 137.466 19.4415 137.466 18.3803C137.466 17.3192 136.606 16.459 135.545 16.459C134.484 16.459 133.624 17.3192 133.624 18.3803C133.624 19.4415 134.484 20.3017 135.545 20.3017Z" fill="#CCF43B"/>
</svg>
