<svg width="138" height="26" viewBox="0 0 138 26" fill="none" xmlns="http://www.w3.org/2000/svg">
<g clip-path="url(#clip0_221_1088)">
<path d="M7.66476 16.6659C6.69957 16.6659 5.93628 16.3912 5.39515 15.85C5.14297 15.5971 4.95609 15.3179 4.83976 15.0192L4.77746 14.8578H0.235992L0.328308 15.1798C0.595497 16.115 1.03006 16.9856 1.62147 17.7662C2.92665 19.4939 4.95984 20.3705 7.66476 20.3705C9.67919 20.3705 11.3041 19.8939 12.4944 18.9527C13.7028 17.9981 14.3152 16.846 14.3152 15.5281C14.3152 13.1789 12.7796 11.6456 9.74448 10.9686C9.5606 10.9318 9.32043 10.8815 9.02547 10.8162C8.72676 10.7509 8.48434 10.6999 8.29821 10.6624C8.11358 10.6256 7.89217 10.5798 7.63399 10.5243C7.38556 10.471 7.18517 10.4177 7.03881 10.3659C6.87895 10.3096 6.69582 10.2488 6.48867 10.1828C6.30404 10.1242 6.16144 10.0665 6.06612 10.0102C5.9648 9.95087 5.86048 9.88182 5.75691 9.80376C5.68035 9.74597 5.62706 9.68593 5.59854 9.62289C5.56702 9.55384 5.55201 9.48404 5.55201 9.40823C5.55201 9.17707 5.66684 8.99169 5.91377 8.82432C6.18546 8.64119 6.63353 8.54812 7.24671 8.54812C8.12859 8.54812 8.84309 8.76353 9.35796 9.17782C9.53583 9.33994 9.68519 9.54708 9.80002 9.79326L9.86832 9.93886H14.2372L14.1704 9.63264C13.9767 8.74476 13.5955 7.9417 13.0348 7.2467C11.7477 5.65257 9.80002 4.84425 7.24671 4.84425C5.34261 4.84425 3.81603 5.28856 2.709 6.16444C1.58395 7.05457 1.01354 8.14659 1.01354 9.40823C1.01354 11.7777 2.55964 13.311 5.6113 13.9677C5.79518 14.0045 6.0954 14.069 6.51044 14.1614C6.93149 14.2552 7.23996 14.3205 7.43585 14.3572C7.62948 14.394 7.88616 14.4541 8.19914 14.5351C8.50685 14.6139 8.74177 14.689 8.89638 14.7573C9.05324 14.8271 9.22511 14.9126 9.40524 15.0117C9.54934 15.0913 9.65217 15.1761 9.70095 15.2564C9.75124 15.3382 9.77525 15.4268 9.77525 15.5281C9.77525 15.8095 9.77525 16.6666 7.66326 16.6666L7.66476 16.6659Z" fill="#02191D"/>
<path d="M19.6376 15.7477V10.7042L16.1701 9.10702H23.6432V5.26354H19.6376V2.20362H15.2379V13.9892C15.2379 17.2796 17.9143 19.956 21.2047 19.956H23.8098V16.1125H20.0023C19.8012 16.1125 19.6368 15.9489 19.6368 15.747L19.6376 15.7477Z" fill="#02191D"/>
<path d="M81.2919 16.0954V11.0518L77.8244 9.45467H85.2974V5.6112H81.2919V2.55128H76.8922V14.3369C76.8922 17.6272 79.5686 20.3036 82.859 20.3036H85.4641V16.4601H81.6566C81.4555 16.4601 81.2911 16.2965 81.2911 16.0946L81.2919 16.0954Z" fill="#02191D"/>
<path d="M57.3876 15.7477V10.7042L53.9201 9.10702H61.3932V5.26354H57.3876V2.20362H52.9879V13.9892C52.9879 17.2796 55.6643 19.956 58.9547 19.956H61.5598V16.1125H57.7523C57.5512 16.1125 57.3868 15.9489 57.3868 15.747L57.3876 15.7477Z" fill="#02191D"/>
<path d="M35.2667 6.78963C35.0258 6.52169 34.7526 6.25975 34.4456 6.00682C33.4039 5.23528 32.221 4.84425 30.9294 4.84425C29.0095 4.84425 27.3786 5.56926 26.0824 6.99978C24.793 8.42279 24.1393 10.3096 24.1393 12.6078C24.1393 14.9059 24.793 16.7927 26.0824 18.2157C27.3786 19.6455 29.0088 20.3713 30.9294 20.3713C32.221 20.3713 33.4039 19.9802 34.4561 19.2004C34.7556 18.9535 35.0265 18.6938 35.2667 18.4259V19.954H39.6663V5.26155H35.2667V6.78963ZM34.3315 9.70394C34.9522 10.3854 35.2674 11.3626 35.2674 12.6078C35.2674 13.8529 34.953 14.8308 34.3315 15.5116C33.7086 16.1953 32.9138 16.5278 31.9036 16.5278C30.9511 16.5278 30.1939 16.1923 29.5897 15.5011C28.9855 14.8106 28.6785 13.8371 28.6785 12.607C28.6785 11.3769 28.9847 10.4042 29.5897 9.7137C30.1946 9.02321 30.9511 8.68697 31.9036 8.68697C32.9138 8.68697 33.7078 9.01946 34.3315 9.70319V9.70394Z" fill="#02191D"/>
<path d="M45.9254 11.9791C45.9254 11.0402 46.1866 10.3309 46.7247 9.81004C47.2576 9.29443 48.0269 9.03249 49.0109 9.03249H51.3495V4.98487H49.4282C48.2123 4.98487 47.1863 5.41343 46.384 6.25477C46.2106 6.42815 46.0575 6.61728 45.9247 6.81993V5.26257H41.5251V19.955H45.9247V11.9791H45.9254Z" fill="#02191D"/>
<path d="M71.7325 10.903C71.5486 10.8662 71.3085 10.8159 71.0142 10.7506C70.7155 10.6853 70.4731 10.6343 70.2862 10.5968C70.1016 10.56 69.8802 10.5142 69.622 10.4587C69.3728 10.4054 69.1732 10.3521 69.0268 10.3003C68.867 10.244 68.6838 10.1832 68.4767 10.1172C68.2913 10.0586 68.1495 10.0009 68.0541 9.94456C67.9528 9.88527 67.8485 9.81622 67.7449 9.73817C67.6684 9.68038 67.6151 9.62033 67.5866 9.55729C67.555 9.48824 67.54 9.41844 67.54 9.34189C67.54 9.11072 67.6549 8.92534 67.9018 8.75797C68.1735 8.57409 68.6216 8.48178 69.2347 8.48178C70.1166 8.48178 70.8311 8.69718 71.346 9.11147C71.5239 9.27359 71.6732 9.48073 71.788 9.72691L71.8563 9.87251H76.2252L76.1584 9.56629C75.9648 8.67842 75.5827 7.8761 75.0228 7.18035C73.7357 5.58622 71.788 4.7779 69.2347 4.7779C67.3306 4.7779 65.8041 5.22222 64.697 6.09809C63.572 6.98822 63.0016 8.08024 63.0016 9.34189C63.0016 11.7113 64.5477 13.2447 67.5993 13.9014C67.7832 13.9381 68.0834 14.0027 68.4985 14.095C68.9188 14.1888 69.228 14.2541 69.4239 14.2909C69.6175 14.3277 69.8742 14.3877 70.1872 14.4688C70.4949 14.5476 70.7298 14.6226 70.8844 14.6909C71.0428 14.7615 71.2139 14.847 71.394 14.9461C71.5381 15.0257 71.6402 15.1097 71.6897 15.1908C71.74 15.2726 71.764 15.3612 71.764 15.4625C71.764 15.7439 71.764 16.601 69.652 16.601C68.6869 16.601 67.9236 16.3263 67.3824 15.7845C67.1302 15.5323 66.9434 15.2523 66.827 14.9536L66.7647 14.7922H62.2233L62.3156 15.1142C62.5828 16.0494 63.0173 16.9193 63.6088 17.7006C64.9139 19.4283 66.9471 20.3049 69.652 20.3049C71.6665 20.3049 73.2921 19.8283 74.4817 18.8871C75.6901 17.9325 76.3025 16.7797 76.3025 15.4625C76.3025 13.1133 74.7669 11.58 71.7318 10.903H71.7325Z" fill="#02191D"/>
<path d="M97.2552 12.9593C97.2552 13.983 96.9497 14.8334 96.3485 15.4864C95.7436 16.1431 95.0306 16.462 94.1697 16.462C93.3089 16.462 92.6627 16.2196 92.1981 15.722C91.7358 15.2267 91.5008 14.4844 91.5008 13.5155V5.19581H87.1012V14.0716C87.1012 16.077 87.6161 17.6336 88.6316 18.6971C89.65 19.7644 91.0926 20.3055 92.9178 20.3055C94.2493 20.3055 95.4524 19.8942 96.4971 19.0814C96.7951 18.8427 97.0488 18.5898 97.2552 18.3256V19.8875H101.655V5.19581H97.2552V12.9593Z" fill="#02191D"/>
<path d="M114.642 6.7218C114.402 6.45311 114.128 6.19193 113.821 5.93825C112.779 5.1667 111.596 4.77567 110.304 4.77567C108.385 4.77567 106.754 5.50069 105.457 6.9312C104.168 8.35421 103.514 10.241 103.514 12.5392C103.514 14.8373 104.168 16.7249 105.457 18.1471C106.754 19.5777 108.385 20.3027 110.304 20.3027C111.596 20.3027 112.779 19.9116 113.831 19.1318C114.131 18.8842 114.402 18.6252 114.642 18.3573V19.8854H119.041V0.828625H114.642V6.7218ZM113.706 9.63612C114.326 10.3176 114.642 11.2948 114.642 12.5399C114.642 13.7851 114.327 14.763 113.706 15.4437C113.083 16.1275 112.288 16.46 111.277 16.46C110.325 16.46 109.568 16.1245 108.964 15.4332C108.359 14.7427 108.053 13.7693 108.053 12.5392C108.053 11.3091 108.359 10.3364 108.964 9.64587C109.568 8.95538 110.325 8.61915 111.277 8.61915C112.287 8.61915 113.082 8.95163 113.706 9.63537V9.63612Z" fill="#02191D"/>
<path d="M131.218 5.19656L128.255 15.701C128.187 15.9427 127.934 16.098 127.677 16.0297C127.502 15.9832 127.376 15.8278 127.331 15.6522L124.65 5.19656H120.092L123.149 16.7427C123.611 18.487 124.532 21.0485 130.742 19.8755L126.384 21.673L125.371 25.1735H129.93L135.78 5.19581H131.218V5.19656Z" fill="#02191D"/>
<path d="M135.78 20.3042C136.842 20.3042 137.702 19.4439 137.702 18.3828C137.702 17.3217 136.842 16.4614 135.78 16.4614C134.719 16.4614 133.859 17.3217 133.859 18.3828C133.859 19.4439 134.719 20.3042 135.78 20.3042Z" fill="#CCF43B"/>
</g>
<defs>
<clipPath id="clip0_221_1088">
<rect width="137.467" height="24.3428" fill="white" transform="translate(0.235992 0.828625)"/>
</clipPath>
</defs>
</svg>
