<svg width="1320" height="234" viewBox="0 0 1320 234" fill="none" xmlns="http://www.w3.org/2000/svg">
<g opacity="0.5">
<path d="M71.3261 152.07C62.0581 152.07 54.7288 149.432 49.5326 144.236C47.1111 141.807 45.3166 139.126 44.1996 136.258L43.6014 134.709H0L0.886444 137.8C3.45208 146.78 7.62484 155.14 13.3038 162.635C25.8365 179.225 45.3599 187.643 71.3333 187.643C90.6765 187.643 106.279 183.066 117.709 174.029C129.312 164.862 135.193 153.799 135.193 141.144C135.193 118.587 120.448 103.863 91.3035 97.3627C89.5378 97.0096 87.2316 96.5267 84.3993 95.8997C81.531 95.2727 79.2032 94.7827 77.4159 94.4223C75.643 94.0692 73.517 93.6296 71.0378 93.0963C68.6524 92.5846 66.7282 92.0729 65.3228 91.5756C63.7878 91.0351 62.0293 90.4513 60.0402 89.8171C58.2673 89.255 56.898 88.7001 55.9827 88.1596C55.0098 87.5902 54.0081 86.9272 53.0135 86.1777C52.2784 85.6228 51.7668 85.0462 51.4929 84.4408C51.1902 83.7778 51.0461 83.1076 51.0461 82.3797C51.0461 80.16 52.1487 78.3799 54.5198 76.7728C57.1286 75.0143 61.4311 74.1206 67.3191 74.1206C75.7871 74.1206 82.6481 76.189 87.592 80.1672C89.3 81.7239 90.7341 83.7129 91.8368 86.0768L92.4926 87.4749H134.444L133.802 84.5345C131.943 76.0088 128.282 68.2975 122.898 61.624C110.539 46.3166 91.8368 38.5549 67.3191 38.5549C49.0353 38.5549 34.3766 42.8213 23.7465 51.2317C12.9435 59.779 7.46629 70.265 7.46629 82.3797C7.46629 105.132 22.3124 119.855 51.6154 126.161C53.3811 126.514 56.2638 127.134 60.2492 128.021C64.2922 128.921 67.2542 129.548 69.1352 129.902C70.9946 130.255 73.4593 130.831 76.4646 131.61C79.4194 132.366 81.6751 133.087 83.1598 133.743C84.666 134.413 86.3163 135.235 88.046 136.186C89.4297 136.95 90.417 137.764 90.8855 138.535C91.3683 139.321 91.599 140.171 91.599 141.144C91.6062 143.847 91.6062 152.07 71.3261 152.07Z" fill="#F5F5F5"/>
<path d="M186.298 143.225V94.7946L153.002 79.4584H224.761V42.5522H186.298V13.1699H144.051V126.339C144.051 157.934 169.751 183.633 201.346 183.633H226.361V146.727H189.8C187.869 146.727 186.298 145.156 186.298 143.225Z" fill="#F5F5F5"/>
<path d="M778.317 146.591V98.1613L745.021 82.8252H816.78V45.9189H778.317V16.5366H736.071V129.706C736.071 161.3 761.77 187 793.365 187H818.38V150.094H781.82C779.895 150.094 778.317 148.523 778.317 146.591Z" fill="#F5F5F5"/>
<path d="M548.787 143.225V94.7946L515.491 79.4584H587.25V42.5522H548.787V13.1699H506.54V126.339C506.54 157.934 532.24 183.633 563.835 183.633H588.85V146.727H552.289C550.358 146.727 548.787 145.156 548.787 143.225Z" fill="#F5F5F5"/>
<path d="M336.375 57.221C334.061 54.6481 331.438 52.1329 328.49 49.7042C318.487 42.2956 307.129 38.5408 294.726 38.5408C276.291 38.5408 260.631 45.5026 248.185 59.2389C235.803 72.9031 229.526 91.0211 229.526 113.088C229.526 135.156 235.803 153.274 248.185 166.938C260.631 180.667 276.284 187.636 294.726 187.636C307.129 187.636 318.487 183.881 328.591 176.393C331.467 174.022 334.068 171.529 336.375 168.956V183.629H378.621V42.5478H336.375V57.221ZM327.388 85.2051C333.348 91.7489 336.375 101.132 336.375 113.088C336.375 125.052 333.355 134.435 327.388 140.972C321.406 147.537 313.774 150.73 304.074 150.73C294.928 150.73 287.656 147.508 281.855 140.871C276.053 134.24 273.106 124.893 273.106 113.081C273.106 101.276 276.046 91.9291 281.855 85.2988C287.664 78.6685 294.928 75.4399 304.074 75.4399C313.774 75.4471 321.406 78.6397 327.388 85.2051Z" fill="#F5F5F5"/>
<path d="M438.726 107.046C438.726 98.0303 441.234 91.2199 446.401 86.2183C451.518 81.2672 458.905 78.752 468.353 78.752H490.809V39.8855H472.36C460.685 39.8855 450.833 44.0006 443.129 52.0795C441.464 53.7443 439.994 55.5604 438.718 57.5063V42.5521H396.472V183.633H438.718V107.046H438.726Z" fill="#F5F5F5"/>
<path d="M686.54 96.7198C684.774 96.3667 682.468 95.8838 679.643 95.2568C676.774 94.6298 674.447 94.1397 672.652 93.7794C670.879 93.4263 668.753 92.9866 666.274 92.4533C663.881 91.9417 661.964 91.43 660.559 90.9327C659.024 90.3922 657.266 89.8084 655.276 89.1742C653.496 88.6121 652.134 88.0572 651.219 87.5166C650.246 86.9473 649.244 86.2843 648.25 85.5348C647.515 84.9798 647.003 84.4033 646.729 83.7979C646.426 83.1349 646.282 82.4647 646.282 81.7296C646.282 79.5099 647.385 77.7298 649.756 76.1227C652.365 74.357 656.667 73.4705 662.555 73.4705C671.023 73.4705 677.884 75.5389 682.828 79.5171C684.536 81.0737 685.97 83.0628 687.073 85.4267L687.729 86.8248H729.68L729.038 83.8844C727.179 75.3587 723.511 67.6546 718.135 60.9739C705.775 45.6665 687.073 37.9047 662.555 37.9047C644.271 37.9047 629.613 42.1712 618.983 50.5816C608.18 59.1289 602.702 69.6149 602.702 81.7296C602.702 104.482 617.549 119.205 646.852 125.511C648.617 125.864 651.5 126.484 655.485 127.371C659.521 128.271 662.49 128.898 664.371 129.251C666.231 129.605 668.696 130.181 671.701 130.959C674.656 131.716 676.911 132.437 678.396 133.093C679.917 133.77 681.56 134.592 683.289 135.543C684.673 136.307 685.653 137.114 686.129 137.893C686.612 138.678 686.842 139.528 686.842 140.501C686.842 143.204 686.842 151.434 666.562 151.434C657.294 151.434 649.965 148.796 644.769 143.593C642.347 141.172 640.553 138.483 639.436 135.615L638.838 134.066H595.229L596.115 137.157C598.681 146.137 602.854 154.49 608.533 161.992C621.065 178.582 640.589 187 666.562 187C685.906 187 701.515 182.424 712.945 173.386C724.549 164.219 730.429 153.149 730.429 140.501C730.429 117.944 715.684 103.213 686.54 96.7198Z" fill="#F5F5F5"/>
<path d="M931.607 116.459C931.607 126.289 928.674 134.455 922.901 140.725C917.093 147.031 910.246 150.094 901.98 150.094C893.699 150.094 887.509 147.766 883.048 142.988C878.608 138.231 876.352 131.103 876.352 121.799V41.9116H834.106V127.14C834.106 146.396 839.05 161.343 848.801 171.556C858.58 181.804 872.432 187 889.959 187C902.744 187 914.296 183.05 924.328 175.245C927.189 172.954 929.625 170.525 931.607 167.988V182.986H973.854V41.9116H931.607V116.459Z" fill="#F5F5F5"/>
<path d="M1098.56 56.5881C1096.25 54.0081 1093.62 51.5001 1090.68 49.0642C1080.67 41.6556 1069.32 37.9008 1056.91 37.9008C1038.48 37.9008 1022.82 44.8626 1010.37 58.5988C997.989 72.263 991.712 90.381 991.712 112.448C991.712 134.523 997.989 152.641 1010.37 166.298C1022.82 180.034 1038.48 186.996 1056.91 186.996C1069.32 186.996 1080.67 183.241 1090.78 175.753C1093.65 173.375 1096.25 170.889 1098.56 168.316V182.989H1140.81V0H1098.56V56.5881ZM1089.58 84.5723C1095.54 91.1161 1098.57 100.499 1098.57 112.456C1098.57 124.419 1095.55 133.802 1089.58 140.339C1083.6 146.904 1075.97 150.097 1066.26 150.097C1057.11 150.097 1049.85 146.875 1044.05 140.238C1038.24 133.608 1035.3 124.26 1035.3 112.448C1035.3 100.644 1038.24 91.2963 1044.05 84.666C1049.85 78.0357 1057.12 74.807 1066.26 74.807C1075.96 74.8142 1083.59 78.0069 1089.58 84.5723Z" fill="#F5F5F5"/>
<path d="M1257.74 41.9112L1229.29 142.778C1228.63 145.099 1226.2 146.591 1223.74 145.935C1222.05 145.488 1220.85 143.996 1220.42 142.31L1194.67 41.9112H1150.91L1180.26 152.781C1184.69 169.53 1193.53 194.127 1253.16 182.863L1211.32 200.123L1201.59 233.736H1245.37L1301.54 41.904H1279.64H1257.74V41.9112Z" fill="#F5F5F5"/>
<path d="M1301.55 186.991C1311.74 186.991 1320 178.731 1320 168.541C1320 158.352 1311.74 150.092 1301.55 150.092C1291.36 150.092 1283.1 158.352 1283.1 168.541C1283.1 178.731 1291.36 186.991 1301.55 186.991Z" fill="#F5F5F5"/>
</g>
</svg>
